<?xml version="1.0" encoding="UTF-8" standalone="no"?>
<svg
   xmlns:dc="http://purl.org/dc/elements/1.1/"
   xmlns:cc="http://creativecommons.org/ns#"
   xmlns:rdf="http://www.w3.org/1999/02/22-rdf-syntax-ns#"
   xmlns:svg="http://www.w3.org/2000/svg"
   xmlns="http://www.w3.org/2000/svg"
   xmlns:xlink="http://www.w3.org/1999/xlink"
   xmlns:sodipodi="http://sodipodi.sourceforge.net/DTD/sodipodi-0.dtd"
   xmlns:inkscape="http://www.inkscape.org/namespaces/inkscape"
   width="210mm"
   height="297mm"
   viewBox="0 0 210 297"
   version="1.1"
   id="svg8"
   inkscape:version="1.0.1 (0767f8302a, 2020-10-17)"
   sodipodi:docname="button_and_streetlight.svg">
  <defs
     id="defs2">
    <pattern
       inkscape:collect="always"
       xlink:href="#pattern24"
       id="pattern34"
       patternTransform="matrix(0.26458333,0,0,0.26458333,570.2684,45.454047)" />
    <pattern
       inkscape:collect="always"
       xlink:href="#pattern24"
       id="pattern32"
       patternTransform="matrix(0.26458333,0,0,0.26458333,267.8973,-1069.2866)" />
    <pattern
       patternUnits="userSpaceOnUse"
       width="3456.0001"
       height="4607.9998"
       patternTransform="translate(-1413.7142,-1818.2856)"
       id="pattern24">
      <image
         sodipodi:absref="/home/olof/repos/github/rescue-on-fractal-bun/assets/sketches/ButtonStand and Streetlight.jpg"
         xlink:href="ButtonStand%20and%20Streetlight.jpg"
         width="4608"
         height="3456"
         preserveAspectRatio="none"
         id="image20"
         x="0"
         y="-3456"
         transform="rotate(90)" />
    </pattern>
    <clipPath
       clipPathUnits="userSpaceOnUse"
       id="clipPath848">
      <path
         id="path850"
         style="opacity:0.666539;fill:#808000;stroke:#ff00ff;stroke-width:0.443971;paint-order:stroke fill markers"
         d="m 1049.8689,474.28891 c 10.0106,-4.37317 20.2906,-8.54403 34.1574,-10.02173 10.1436,2.0665 16.3792,4.133 21.5567,6.19953 4.5679,1.82317 7.7449,7.37172 12.6227,9.19488 l 3.2431,19.54038 4.2887,37.28892 17.5007,286.00601 -18.6935,0.7189 -13.8297,-271.49745 -4.0995,-52.68389 c -6.2827,-18.24395 -11.9479,-13.541 -17.8932,-19.24584 -18.2835,3.85188 -26.9447,1.97567 -27.7732,25.60672 22.4494,2.46382 23.0757,22.76599 32.7634,35.66133 l -80.0267,1.25844 8.622,-4.48964 c 4.1979,-15.88616 13.1337,-23.65433 21.6074,-32.21429 z"
         sodipodi:nodetypes="ccscccccccccccccc" />
    </clipPath>
    <clipPath
       clipPathUnits="userSpaceOnUse"
       id="clipPath1813">
      <path
         id="path1815"
         style="opacity:0.666539;fill:#808000;stroke:#ff00ff;stroke-width:0.443971;paint-order:stroke fill markers"
         d="m 497.05318,-418.27344 c 21.91062,3.14624 43.82125,0.40928 65.73187,-5.49011 l 14.07607,47.8658 -30.33596,8.86368 -3.10047,82.73028 -29.15433,-5.0901 -1.93421,-76.88358 -20.65224,-4.01622 z"
         sodipodi:nodetypes="ccccccccc" />
    </clipPath>
  </defs>
  <sodipodi:namedview
     id="base"
     pagecolor="#ffffff"
     bordercolor="#666666"
     borderopacity="1.0"
     inkscape:pageopacity="0.0"
     inkscape:pageshadow="2"
     inkscape:zoom="0.11313709"
     inkscape:cx="4527.3732"
     inkscape:cy="-2121.1954"
     inkscape:document-units="mm"
     inkscape:current-layer="layer1"
     inkscape:document-rotation="0"
     showgrid="false"
     inkscape:window-width="2560"
     inkscape:window-height="1376"
     inkscape:window-x="0"
     inkscape:window-y="27"
     inkscape:window-maximized="1"
     inkscape:snap-global="false" />
  <metadata
     id="metadata5">
    <rdf:RDF>
      <cc:Work
         rdf:about="">
        <dc:format>image/svg+xml</dc:format>
        <dc:type
           rdf:resource="http://purl.org/dc/dcmitype/StillImage" />
        <dc:title />
      </cc:Work>
    </rdf:RDF>
  </metadata>
  <g
     inkscape:label="Layer 1"
     inkscape:groupmode="layer"
     id="layer1">
    <path
       id="rect27"
       style="fill:url(#pattern34);stroke:none;stroke-width:0.264583"
       d="m 570.2684,463.49572 h 556.4354 c 0,0 25.5069,261.53797 30.2061,369.14663 1.0547,24.15315 -26.5354,-8.28294 -40.47,10.62546 L 994.36532,1008.9152 570.2684,1264.6541 Z"
       sodipodi:nodetypes="ccssccc"
       clip-path="url(#clipPath848)"
       transform="rotate(3.0429891,1310.8166,9409.9461)"
       inkscape:export-filename="/home/olof/repos/github/rescue-on-fractal-bun/assets/TStreetLight.png"
       inkscape:export-xdpi="21.115759"
       inkscape:export-ydpi="21.115759" />
    <path
       id="path30"
       style="fill:url(#pattern32);stroke:none;stroke-width:0.264583"
       d="m 267.8973,-651.24496 h 524.03474 c 0,0 31.76346,11.38596 28.468,52.11792 3.67531,77.82997 20.42591,303.69881 20.42591,303.69881 l -19.37923,7.13568 -17.25037,-317.47347 -112.20213,499.94054 -424.09692,255.73884 z"
       sodipodi:nodetypes="ccccccccc"
       clip-path="url(#clipPath1813)"
       transform="translate(248.70833)"
       inkscape:export-filename="/home/olof/repos/github/rescue-on-fractal-bun/assets/TButtonOnPanel.png"
       inkscape:export-xdpi="18.213142"
       inkscape:export-ydpi="18.213142" />
    <path
       style="fill:none;stroke:#000000;stroke-width:0.264583px;stroke-linecap:butt;stroke-linejoin:miter;stroke-opacity:1"
       d="m 1125.0289,823.1065 18.2891,-2.25053 c -5.225,-100.31661 -20.3352,-329.94326 -30.1026,-346.70849 -20.1444,-10.23451 -24.8012,-7.32477 -35.5728,-9.60458 -12.3477,4.4466 -21.9895,8.14459 -27.1643,10.60676 l -6.0112,31.90838 c -11.8132,10.11717 -17.1311,19.00873 -22.1942,31.07188 l -7.8662,4.75368 7.709,-0.0864 59.3379,-2.10738 13.0906,0.87115 -2.5855,-4.52298 -3.9196,-0.53119 c -5.9222,-23.27299 -16.5075,-29.15058 -28.1498,-31.08529 -2.3404,-11.45461 2.2968,-19.31646 11.0715,-25.04793 12.723,-3.75474 25.0234,-2.92586 35.9363,12.95196 11.2933,122.07574 12.7806,220.50675 18.1318,329.78099 z"
       id="path36"
       sodipodi:nodetypes="ccccccccccccccccc" />
  </g>
</svg>
