<?xml version="1.0" encoding="UTF-8" standalone="no"?>
<svg
   xmlns:dc="http://purl.org/dc/elements/1.1/"
   xmlns:cc="http://creativecommons.org/ns#"
   xmlns:rdf="http://www.w3.org/1999/02/22-rdf-syntax-ns#"
   xmlns:svg="http://www.w3.org/2000/svg"
   xmlns="http://www.w3.org/2000/svg"
   xmlns:xlink="http://www.w3.org/1999/xlink"
   xmlns:sodipodi="http://sodipodi.sourceforge.net/DTD/sodipodi-0.dtd"
   xmlns:inkscape="http://www.inkscape.org/namespaces/inkscape"
   width="210mm"
   height="297mm"
   viewBox="0 0 210 297"
   version="1.1"
   id="svg8"
   inkscape:version="1.0.1 (0767f8302a, 2020-10-17)"
   sodipodi:docname="elise-walk.svg">
  <defs
     id="defs2">
    <clipPath
       clipPathUnits="userSpaceOnUse"
       id="clipPath1194">
      <path
         id="path1196"
         style="font-variation-settings:normal;opacity:1;vector-effect:none;fill:#ffff00;fill-opacity:0.580262;stroke:#000000;stroke-width:0.264583px;stroke-linecap:butt;stroke-linejoin:miter;stroke-miterlimit:4;stroke-dasharray:none;stroke-dashoffset:0;stroke-opacity:1;stop-color:#000000;stop-opacity:1"
         d="m -194.3868,222.41103 c -5.64487,-15.80212 0.21263,-61.78115 12.15558,-70.1873 7.70947,-5.31868 14.34616,-5.39291 18.83643,5.02599 3.33917,-4.16496 3.65648,-10.76178 18.8691,-5.37158 10.8669,0.60724 20.61495,3.42426 18.25627,30.15246 17.98208,1.61207 22.87219,9.04285 23.67804,20.65807 -1.05656,10.45404 -5.4202,21.32878 -14.44208,26.94275 -14.18273,0.83021 -29.5764,-0.63919 -45.82242,-3.72725 -11.74873,0.49776 -22.60644,-0.20037 -31.53092,-3.49314 z M -230.87692,40.180318 c -36.66533,-23.394727 -18.89965,-145.932708 32.02509,-173.197898 64.91576,-25.38496 99.626365,4.16572 127.27508,45.782087 2.841326,19.584363 -4.499491,30.22713 -17.068909,36.278333 -3.688477,33.384751 -20.013971,51.36861804 -44.907651,58.9103474 l -42.17996,-1.0819754 -4.05134,18.199424 c 9.42368,-11.158463 23.50351,-12.424285 43.5719,-0.96658 26.65515,24.94082 41.024411,58.260804 56.431588,90.872914 -0.09483,18.45418 -5.609244,28.69732 -20.768388,24.32806 l -126.0522,2.56726 c -9.59258,-5.22126 -7.55565,-9.42754 -9.71027,-13.99965 6.6263,-35.338262 23.7665,-49.208496 38.27737,-68.447464 l 16.848,-29.301276 c -22.38839,13.891654 -36.59558,12.98045 -49.69031,10.056418 z" />
    </clipPath>
    <clipPath
       clipPathUnits="userSpaceOnUse"
       id="clipPath1216">
      <path
         id="path1218"
         style="font-variation-settings:normal;opacity:1;vector-effect:none;fill:#ffff00;fill-opacity:0.580262;stroke:#000000;stroke-width:0.265451px;stroke-linecap:butt;stroke-linejoin:miter;stroke-miterlimit:4;stroke-dasharray:none;stroke-dashoffset:0;stroke-opacity:1;stop-color:#000000;stop-opacity:1"
         d="m 1207.7436,234.38014 7.6104,-13.79143 c -5.4998,-27.69682 0.5253,-35.95345 8.4353,-41.0306 7.936,-2.37098 16.4591,-3.35442 27.3393,1.23295 9.2148,10.81069 9.0286,21.10538 8.041,31.35608 l 10.9839,-0.49046 c 0.045,-10.98333 -1.2525,-22.98759 5.9756,-28.50665 10.1529,-6.41256 20.804,-6.73249 32.2744,2.96675 2.9407,6.23685 5.992,7.09422 8.7058,24.36166 13.4968,2.00389 23.6173,9.96324 25.076,27.51767 -9.3339,13.5524 -24.8078,22.58531 -47.2734,16.94998 l -8.8403,2.44882 -11.5194,-5.84535 c -6.8117,2.21522 -15.9131,6.20556 -21.7454,5.76816 -9.5618,0.82332 -15.6919,-0.95012 -26.5319,-2.25369 l -11.5484,-3.68987 c -2.6919,-4.90602 -5.5709,-10.68035 -6.9829,-16.99402 z M 1172.8711,57.573233 c -30.8631,-27.377655 -8.7291,-145.272046 40.041,-171.095423 17.2356,-9.9798 39.8871,-12.95276 61.8258,-8.69316 37.7946,7.33814 74.8226,30.658843 71.6381,54.598703 11.7731,24.04735 -0.8767,32.119742 -17.125,36.397523 7.2342,24.8484788 -20.3585,54.599993 -47.7233,64.055646 -9.4297,1.94541 -20.8495,2.952967 -41.6494,-0.459737 l 4.1942,13.329422 c 12.0258,-22.746462 46.3102,-3.062105 60.5438,21.810647 23.3708,31.510827 31.1853,42.000426 46.5176,74.038706 -0.095,18.51481 -9.2885,32.76621 -24.4974,28.3826 l -138.2427,0.88269 c -9.6241,-5.23841 -4.7274,-10.98528 -6.8891,-15.57241 10.202,-26.58181 24.3214,-48.36684 37.4946,-72.968225 l 17.4068,-32.151897 c -11.7518,24.60765 -48.6432,12.250169 -63.535,7.444915 z" />
    </clipPath>
  </defs>
  <sodipodi:namedview
     id="base"
     pagecolor="#ffffff"
     bordercolor="#666666"
     borderopacity="1.0"
     inkscape:pageopacity="0.0"
     inkscape:pageshadow="2"
     inkscape:zoom="0.0875"
     inkscape:cx="8064.0806"
     inkscape:cy="-681.16743"
     inkscape:document-units="mm"
     inkscape:current-layer="layer1"
     inkscape:document-rotation="0"
     showgrid="false"
     inkscape:window-width="2560"
     inkscape:window-height="1376"
     inkscape:window-x="0"
     inkscape:window-y="27"
     inkscape:window-maximized="1"
     inkscape:snap-global="false" />
  <metadata
     id="metadata5">
    <rdf:RDF>
      <cc:Work
         rdf:about="">
        <dc:format>image/svg+xml</dc:format>
        <dc:type
           rdf:resource="http://purl.org/dc/dcmitype/StillImage" />
        <dc:title />
      </cc:Work>
    </rdf:RDF>
  </metadata>
  <g
     inkscape:label="Layer 1"
     inkscape:groupmode="layer"
     id="layer1">
    <image
       sodipodi:absref="/home/olof/repos/github/rescue-on-fractal-bun/assets/sketches/elise-walk2.jpg"
       xlink:href="elise-walk2.jpg"
       clip-path="url(#clipPath1194)"
       width="914.40002"
       height="1219.2"
       preserveAspectRatio="none"
       id="image895"
       x="-351.36667"
       y="-461.43332" />
    <image
       sodipodi:absref="/home/olof/repos/github/rescue-on-fractal-bun/assets/sketches/elise-walk1.jpg"
       xlink:href="elise-walk1.jpg"
       y="-471.84219"
       x="-1587.4636"
       id="image929"
       preserveAspectRatio="none"
       height="1219.2"
       width="914.40002" />
    <image
       sodipodi:absref="/home/olof/repos/github/rescue-on-fractal-bun/assets/sketches/elise-walk3.jpg"
       xlink:href="elise-walk3.jpg"
       inkscape:export-ydpi="6.655652"
       inkscape:export-xdpi="6.655652"
       inkscape:export-filename="/home/olof/repos/github/rescue-on-fractal-bun/assets/TEliseWalk3.png"
       clip-path="url(#clipPath1216)"
       y="-445.03021"
       x="829.75342"
       id="image993"
       preserveAspectRatio="none"
       height="1219.2"
       width="914.40002" />
    <image
       sodipodi:absref="/home/olof/repos/github/rescue-on-fractal-bun/assets/sketches/elise-walk4.jpg"
       xlink:href="elise-walk4.jpg"
       transform="rotate(90)"
       y="-3090.7148"
       x="-364.34985"
       id="image1057"
       preserveAspectRatio="none"
       height="914.40002"
       width="1219.2" />
    <image
       sodipodi:absref="/home/olof/repos/github/rescue-on-fractal-bun/assets/sketches/elise-walk5.jpg"
       xlink:href="elise-walk5.jpg"
       transform="rotate(90)"
       y="-4121.2974"
       x="-380.6825"
       id="image1121"
       preserveAspectRatio="none"
       height="914.40002"
       width="1219.2" />
    <image
       sodipodi:absref="/home/olof/repos/github/rescue-on-fractal-bun/assets/sketches/elise-walk6.jpg"
       xlink:href="elise-walk6.jpg"
       transform="rotate(90)"
       y="-5576.6006"
       x="-486.87595"
       id="image1169"
       preserveAspectRatio="none"
       height="914.40002"
       width="1219.2" />
  </g>
</svg>
