<?xml version="1.0" encoding="UTF-8" standalone="no"?>
<!-- Created with Inkscape (http://www.inkscape.org/) -->

<svg
   xmlns:dc="http://purl.org/dc/elements/1.1/"
   xmlns:cc="http://creativecommons.org/ns#"
   xmlns:rdf="http://www.w3.org/1999/02/22-rdf-syntax-ns#"
   xmlns:svg="http://www.w3.org/2000/svg"
   xmlns="http://www.w3.org/2000/svg"
   xmlns:sodipodi="http://sodipodi.sourceforge.net/DTD/sodipodi-0.dtd"
   xmlns:inkscape="http://www.inkscape.org/namespaces/inkscape"
   width="210mm"
   height="297mm"
   viewBox="0 0 210 297"
   version="1.1"
   id="svg8"
   inkscape:version="0.92.5 (2060ec1f9f, 2020-04-08)"
   sodipodi:docname="forest_concept.svg">
  <defs
     id="defs2" />
  <sodipodi:namedview
     id="base"
     pagecolor="#ffffff"
     bordercolor="#666666"
     borderopacity="1.0"
     inkscape:pageopacity="0.0"
     inkscape:pageshadow="2"
     inkscape:zoom="0.35"
     inkscape:cx="5964.6386"
     inkscape:cy="2044.8998"
     inkscape:document-units="mm"
     inkscape:current-layer="layer1"
     showgrid="false"
     inkscape:window-width="816"
     inkscape:window-height="651"
     inkscape:window-x="830"
     inkscape:window-y="63"
     inkscape:window-maximized="0" />
  <metadata
     id="metadata5">
    <rdf:RDF>
      <cc:Work
         rdf:about="">
        <dc:format>image/svg+xml</dc:format>
        <dc:type
           rdf:resource="http://purl.org/dc/dcmitype/StillImage" />
        <dc:title></dc:title>
      </cc:Work>
    </rdf:RDF>
  </metadata>
  <g
     inkscape:label="Layer 1"
     inkscape:groupmode="layer"
     id="layer1">
    <rect
       style="opacity:1;fill:#80e5ff;fill-opacity:1;stroke:#ddff55;stroke-width:0.98000002;stroke-miterlimit:4;stroke-dasharray:none;paint-order:stroke fill markers"
       id="rect815"
       width="384.77979"
       height="142.11905"
       x="358.32144"
       y="25.613094" />
    <g
       id="g858"
       transform="translate(0.75595238,0.75595238)">
      <path
         style="fill:#00aa88;stroke:#000000;stroke-width:0.26458332px;stroke-linecap:butt;stroke-linejoin:miter;stroke-opacity:1"
         d="m 381.75594,161.68452 c -3.95575,0.94599 -1.18005,-4.17242 -2.3295,-6.2999 0.47082,-3.23746 -0.6976,-6.64149 0.62627,-9.72223 1.27015,-2.54003 3.08167,-4.92299 3.70208,-7.73819 3.32346,-1.6603 4.45398,3.45716 5.48237,5.56841 0.98375,3.05454 1.92635,6.14787 1.55498,9.39184 0.72992,3.45884 -0.58935,5.95613 -2.63512,8.55374 -1.48709,1.90757 -4.68735,1.74068 -6.40108,0.24633 z"
         id="path854"
         inkscape:connector-curvature="0" />
      <rect
         style="opacity:1;fill:#00aa88;fill-opacity:1;stroke:#ddff55;stroke-width:1.19971371;stroke-miterlimit:4;stroke-dasharray:none;paint-order:stroke fill markers"
         id="rect856"
         width="27.669044"
         height="20.532629"
         x="371.07996"
         y="122.85013" />
    </g>
    <g
       id="g831"
       transform="translate(317.5,-3.0238095)">
      <path
         inkscape:connector-curvature="0"
         id="path819"
         d="m 381.75594,161.68452 c -3.95575,0.94599 -1.18005,-4.17242 -2.3295,-6.2999 0.47082,-3.23746 -0.6976,-6.64149 0.62627,-9.72223 1.27015,-2.54003 3.08167,-4.92299 3.70208,-7.73819 3.32346,-1.6603 4.45398,3.45716 5.48237,5.56841 0.98375,3.05454 1.92635,6.14787 1.55498,9.39184 0.72992,3.45884 -0.58935,5.95613 -2.63512,8.55374 -1.48709,1.90757 -4.68735,1.74068 -6.40108,0.24633 z"
         style="fill:#00aa88;stroke:#000000;stroke-width:0.26458332px;stroke-linecap:butt;stroke-linejoin:miter;stroke-opacity:1" />
      <rect
         y="122.85013"
         x="371.07996"
         height="20.532629"
         width="27.669044"
         id="rect827"
         style="opacity:1;fill:#00aa88;fill-opacity:1;stroke:#ddff55;stroke-width:1.19971371;stroke-miterlimit:4;stroke-dasharray:none;paint-order:stroke fill markers" />
    </g>
    <g
       id="g848"
       transform="translate(261.55953,-1.5119066)">
      <path
         style="fill:none;stroke:#000000;stroke-width:0.26458332px;stroke-linecap:butt;stroke-linejoin:miter;stroke-opacity:1"
         d="m 419.07862,163.89977 c -3.17401,-2.83603 -4.91013,-7.90715 -6.53951,-12.15151 -1.48527,-4.48253 -1.87474,-9.3001 -3.72275,-13.64699 -1.52672,-4.56265 -3.20147,-10.85641 -0.73299,-15.61568 -2.93542,-0.56075 -6.26067,0.6235 -9.33433,0.36454"
         id="path833"
         inkscape:connector-curvature="0" />
      <path
         style="fill:none;stroke:#000000;stroke-width:0.26458332px;stroke-linecap:butt;stroke-linejoin:miter;stroke-opacity:1"
         d="m 398.74899,122.85013 c 4.92157,0.16689 11.36902,1.13206 9.16467,7.8826 -1.73697,4.8699 -4.07768,9.65574 -4.55356,15.10577 -1.06055,4.18627 -5.64375,8.63263 -6.35038,11.65379 -0.3017,-2.93195 -4.39575,-2.8886 -6.21759,-4.60784"
         id="path835"
         inkscape:connector-curvature="0" />
      <path
         style="fill:none;stroke:#000000;stroke-width:0.26458332px;stroke-linecap:butt;stroke-linejoin:miter;stroke-opacity:1"
         d="m 398.74899,122.85013 c 3.99583,-0.15603 9.17856,-1.86454 7.11506,-6.73613 2.2865,-4.9662 0.98259,-11.95923 3.05621,-16.01619 0.59199,-0.476238 0.0662,-1.417598 0.002,-1.94634"
         id="path837"
         inkscape:connector-curvature="0" />
      <path
         style="fill:none;stroke:#000000;stroke-width:0.26458332px;stroke-linecap:butt;stroke-linejoin:miter;stroke-opacity:1"
         d="m 399.30067,105.10048 c 4.40677,-0.58105 9.99766,-1.67993 13.47942,1.08764 1.56027,0.24096 3.1292,-0.25615 4.69491,-0.0186"
         id="path839"
         inkscape:connector-curvature="0" />
      <path
         style="fill:none;stroke:#000000;stroke-width:0.26458332px;stroke-linecap:butt;stroke-linejoin:miter;stroke-opacity:1"
         d="m 408.92237,98.15147 c -3.06735,-1.798242 -6.22587,-6.390937 -1.57526,-7.759031 1.28673,-2.800438 5.21693,-7.26445 5.51779,-1.700839 1.92386,4.225311 3.15393,12.09303 -3.94494,9.299141 -4.54738,0.266753 -11.03488,-6.706259 -3.38223,-6.495331 1.62351,1.363988 2.09289,4.687265 3.38464,6.65606 z"
         id="path841"
         inkscape:connector-curvature="0" />
    </g>
    <text
       id="text862"
       y="189.61992"
       x="353.77371"
       style="font-style:normal;font-weight:normal;font-size:14.11711216px;line-height:1.25;font-family:sans-serif;letter-spacing:0px;word-spacing:0px;fill:#000000;fill-opacity:1;stroke:none;stroke-width:0.75627387"
       xml:space="preserve"><tspan
         style="stroke-width:0.75627387"
         y="189.61992"
         x="353.77371"
         id="tspan860"
         sodipodi:role="line">Hembyn</tspan></text>
    <text
       xml:space="preserve"
       style="font-style:normal;font-weight:normal;font-size:14.11711216px;line-height:1.25;font-family:sans-serif;letter-spacing:0px;word-spacing:0px;fill:#000000;fill-opacity:1;stroke:none;stroke-width:0.75627387"
       x="662.20227"
       y="180.54849"
       id="text852"><tspan
         sodipodi:role="line"
         id="tspan850"
         x="662.20227"
         y="180.54849"
         style="stroke-width:0.75627387">Korsningen</tspan></text>
    <rect
       y="-329.68451"
       x="1393.9762"
       height="142.11905"
       width="384.77979"
       id="rect890"
       style="opacity:1;fill:#0088aa;fill-opacity:1;stroke:#ddff55;stroke-width:0.98000002;stroke-miterlimit:4;stroke-dasharray:none;paint-order:stroke fill markers" />
    <g
       transform="translate(1036.4107,-354.54166)"
       id="g896">
      <path
         inkscape:connector-curvature="0"
         id="path892"
         d="m 381.75594,161.68452 c -3.95575,0.94599 -1.18005,-4.17242 -2.3295,-6.2999 0.47082,-3.23746 -0.6976,-6.64149 0.62627,-9.72223 1.27015,-2.54003 3.08167,-4.92299 3.70208,-7.73819 3.32346,-1.6603 4.45398,3.45716 5.48237,5.56841 0.98375,3.05454 1.92635,6.14787 1.55498,9.39184 0.72992,3.45884 -0.58935,5.95613 -2.63512,8.55374 -1.48709,1.90757 -4.68735,1.74068 -6.40108,0.24633 z"
         style="fill:#00aa88;stroke:#000000;stroke-width:0.26458332px;stroke-linecap:butt;stroke-linejoin:miter;stroke-opacity:1" />
      <rect
         y="122.85013"
         x="371.07996"
         height="20.532629"
         width="27.669044"
         id="rect894"
         style="opacity:1;fill:#00aa88;fill-opacity:1;stroke:#ddff55;stroke-width:1.19971371;stroke-miterlimit:4;stroke-dasharray:none;paint-order:stroke fill markers" />
    </g>
    <g
       transform="translate(1314.4851,-354.46363)"
       id="g902">
      <path
         style="fill:#00aa88;stroke:#000000;stroke-width:0.26458332px;stroke-linecap:butt;stroke-linejoin:miter;stroke-opacity:1"
         d="m 381.75594,161.68452 c -3.95575,0.94599 -1.18005,-4.17242 -2.3295,-6.2999 0.47082,-3.23746 -0.6976,-6.64149 0.62627,-9.72223 1.27015,-2.54003 3.08167,-4.92299 3.70208,-7.73819 3.32346,-1.6603 4.45398,3.45716 5.48237,5.56841 0.98375,3.05454 1.92635,6.14787 1.55498,9.39184 0.72992,3.45884 -0.58935,5.95613 -2.63512,8.55374 -1.48709,1.90757 -4.68735,1.74068 -6.40108,0.24633 z"
         id="path898"
         inkscape:connector-curvature="0" />
      <rect
         style="opacity:1;fill:#00aa88;fill-opacity:1;stroke:#ddff55;stroke-width:1.19971371;stroke-miterlimit:4;stroke-dasharray:none;paint-order:stroke fill markers"
         id="rect900"
         width="27.669044"
         height="20.532629"
         x="371.07996"
         y="122.85013" />
    </g>
    <g
       id="g946"
       transform="matrix(-1,0,0,1,2069.5536,-354.8939)">
      <path
         style="fill:none;stroke:#000000;stroke-width:0.26458332px;stroke-linecap:butt;stroke-linejoin:miter;stroke-opacity:1"
         d="m 419.07862,163.89977 c -3.17401,-2.83603 -4.91013,-7.90715 -6.53951,-12.15151 -1.48527,-4.48253 -1.87474,-9.3001 -3.72275,-13.64699 -1.52672,-4.56265 -3.20147,-10.85641 -0.73299,-15.61568 -2.93542,-0.56075 -6.26067,0.6235 -9.33433,0.36454"
         id="path936"
         inkscape:connector-curvature="0" />
      <path
         style="fill:none;stroke:#000000;stroke-width:0.26458332px;stroke-linecap:butt;stroke-linejoin:miter;stroke-opacity:1"
         d="m 398.74899,122.85013 c 4.92157,0.16689 11.36902,1.13206 9.16467,7.8826 -1.73697,4.8699 -4.07768,9.65574 -4.55356,15.10577 -1.06055,4.18627 -5.64375,8.63263 -6.35038,11.65379 -0.3017,-2.93195 -4.39575,-2.8886 -6.21759,-4.60784"
         id="path938"
         inkscape:connector-curvature="0" />
      <path
         style="fill:none;stroke:#000000;stroke-width:0.26458332px;stroke-linecap:butt;stroke-linejoin:miter;stroke-opacity:1"
         d="m 398.74899,122.85013 c 3.99583,-0.15603 9.17856,-1.86454 7.11506,-6.73613 2.2865,-4.9662 0.98259,-11.95923 3.05621,-16.01619 0.59199,-0.476238 0.0662,-1.417598 0.002,-1.94634"
         id="path940"
         inkscape:connector-curvature="0" />
      <path
         style="fill:none;stroke:#000000;stroke-width:0.26458332px;stroke-linecap:butt;stroke-linejoin:miter;stroke-opacity:1"
         d="m 399.30067,105.10048 c 4.40677,-0.58105 9.99766,-1.67993 13.47942,1.08764 1.56027,0.24096 3.1292,-0.25615 4.69491,-0.0186"
         id="path942"
         inkscape:connector-curvature="0" />
      <path
         style="fill:none;stroke:#000000;stroke-width:0.26458332px;stroke-linecap:butt;stroke-linejoin:miter;stroke-opacity:1"
         d="m 408.92237,98.15147 c -3.06735,-1.798242 -6.22587,-6.390937 -1.57526,-7.759031 1.28673,-2.800438 5.21693,-7.26445 5.51779,-1.700839 1.92386,4.225311 3.15393,12.09303 -3.94494,9.299141 -4.54738,0.266753 -11.03488,-6.706259 -3.38223,-6.495331 1.62351,1.363988 2.09289,4.687265 3.38464,6.65606 z"
         id="path944"
         inkscape:connector-curvature="0" />
    </g>
    <g
       transform="matrix(-1,0,0,1,1944.8215,-354.13795)"
       id="g914">
      <path
         inkscape:connector-curvature="0"
         id="path904"
         d="m 419.07862,163.89977 c -3.17401,-2.83603 -4.91013,-7.90715 -6.53951,-12.15151 -1.48527,-4.48253 -1.87474,-9.3001 -3.72275,-13.64699 -1.52672,-4.56265 -3.20147,-10.85641 -0.73299,-15.61568 -2.93542,-0.56075 -6.26067,0.6235 -9.33433,0.36454"
         style="fill:none;stroke:#000000;stroke-width:0.26458332px;stroke-linecap:butt;stroke-linejoin:miter;stroke-opacity:1" />
      <path
         inkscape:connector-curvature="0"
         id="path906"
         d="m 398.74899,122.85013 c 4.92157,0.16689 11.36902,1.13206 9.16467,7.8826 -1.73697,4.8699 -4.07768,9.65574 -4.55356,15.10577 -1.06055,4.18627 -5.64375,8.63263 -6.35038,11.65379 -0.3017,-2.93195 -4.39575,-2.8886 -6.21759,-4.60784"
         style="fill:none;stroke:#000000;stroke-width:0.26458332px;stroke-linecap:butt;stroke-linejoin:miter;stroke-opacity:1" />
      <path
         inkscape:connector-curvature="0"
         id="path908"
         d="m 398.74899,122.85013 c 3.99583,-0.15603 9.17856,-1.86454 7.11506,-6.73613 2.2865,-4.9662 0.98259,-11.95923 3.05621,-16.01619 0.59199,-0.476238 0.0662,-1.417598 0.002,-1.94634"
         style="fill:none;stroke:#000000;stroke-width:0.26458332px;stroke-linecap:butt;stroke-linejoin:miter;stroke-opacity:1" />
      <path
         inkscape:connector-curvature="0"
         id="path910"
         d="m 399.30067,105.10048 c 4.40677,-0.58105 9.99766,-1.67993 13.47942,1.08764 1.56027,0.24096 3.1292,-0.25615 4.69491,-0.0186"
         style="fill:none;stroke:#000000;stroke-width:0.26458332px;stroke-linecap:butt;stroke-linejoin:miter;stroke-opacity:1" />
      <path
         inkscape:connector-curvature="0"
         id="path912"
         d="m 408.92237,98.15147 c -3.06735,-1.798242 -6.22587,-6.390937 -1.57526,-7.759031 1.28673,-2.800438 5.21693,-7.26445 5.51779,-1.700839 1.92386,4.225311 3.15393,12.09303 -3.94494,9.299141 -4.54738,0.266753 -11.03488,-6.706259 -3.38223,-6.495331 1.62351,1.363988 2.09289,4.687265 3.38464,6.65606 z"
         style="fill:none;stroke:#000000;stroke-width:0.26458332px;stroke-linecap:butt;stroke-linejoin:miter;stroke-opacity:1" />
    </g>
    <text
       xml:space="preserve"
       style="font-style:normal;font-weight:normal;font-size:14.11711216px;line-height:1.25;font-family:sans-serif;letter-spacing:0px;word-spacing:0px;fill:#000000;fill-opacity:1;stroke:none;stroke-width:0.75627387"
       x="1672.1547"
       y="-165.6777"
       id="text918"><tspan
         sodipodi:role="line"
         id="tspan916"
         x="1672.1547"
         y="-165.6777"
         style="stroke-width:0.75627387">Hembyn</tspan></text>
    <text
       id="text922"
       y="-162.6539"
       x="1386.4047"
       style="font-style:normal;font-weight:normal;font-size:14.11711216px;line-height:1.25;font-family:sans-serif;letter-spacing:0px;word-spacing:0px;fill:#000000;fill-opacity:1;stroke:none;stroke-width:0.75627387"
       xml:space="preserve"><tspan
         style="stroke-width:0.75627387"
         y="-162.6539"
         x="1386.4047"
         id="tspan920"
         sodipodi:role="line">Korsningen</tspan></text>
    <rect
       style="opacity:1;fill:#002b22;fill-opacity:1;stroke:#ddff55;stroke-width:0.98000002;stroke-miterlimit:4;stroke-dasharray:none;paint-order:stroke fill markers"
       id="rect924"
       width="12.828938"
       height="127.22029"
       x="1743.6664"
       y="-318.25443" />
    <path
       style="fill:#784421;stroke:#000000;stroke-width:0.26458332px;stroke-linecap:butt;stroke-linejoin:miter;stroke-opacity:1"
       d="m 1456.0844,-192.10323 c 0,-1.60362 0,-3.20724 0,-4.81085 0,-0.17818 0.1593,-0.45486 0,-0.53454 -0.3188,-0.15937 -0.7504,0.15937 -1.0691,0 -0.1594,-0.0797 0,-0.35636 0,-0.53454 0,-1.24726 0,-2.49452 0,-3.74177 0,-1.01847 -0.026,-3.20064 0,-3.20724 0.6914,-0.17286 1.5007,0.31874 2.1382,0 0.3187,-0.15937 -0.1594,-0.75034 0,-1.06908 0.08,-0.15937 0.4085,0.12599 0.5345,0 0.126,-0.12599 0,-0.35636 0,-0.53454 0,-0.71272 0,-1.42543 0,-2.13815 0,-0.17818 0.169,-0.4782 0,-0.53454 -0.5071,-0.16904 -1.0965,0.16903 -1.6036,0 -0.069,-0.0228 0.1081,-2.02999 0,-2.13816 -0.126,-0.12599 -0.4086,0.12599 -0.5346,0 -0.017,-0.0172 0,-1.47398 0,-1.60362 0,-0.17818 -0.126,-0.40854 0,-0.53454 2.0862,-2.08616 0.2871,0.12374 1.6037,-0.53453 2.2246,-1.11231 -0.5715,0.0369 0.5345,-1.06908 0.252,-0.25199 0.8171,0.25198 1.0691,0 0.126,-0.12599 -0.126,-0.40855 0,-0.53454 0.126,-0.12599 0.7127,0 0.5345,0 -0.3564,0 -0.7127,0 -1.0691,0 -0.1782,0 -0.4085,0.12599 -0.5345,0 -0.126,-0.12599 0,-0.35636 0,-0.53454 0,-1.06908 0,-2.13816 0,-3.20723 0,-0.35636 -0.2965,-0.87141 0,-1.06908 0.4448,-0.29651 1.1588,0.29651 1.6036,0 0.2965,-0.19767 -0.252,-0.8171 0,-1.06908 0.252,-0.25198 0.7503,0.15937 1.0691,0 0.1593,-0.0797 0,-0.35636 0,-0.53454 0,-0.35636 -0.1127,-0.731 0,-1.06908 0.3441,-1.03239 0.9082,-0.18682 1.6036,-0.53454 0.2115,-0.10574 -0.2659,-1.07184 0,-1.60361 0.08,-0.15937 0.4085,0.12599 0.5345,0 0.126,-0.126 0,-0.35636 0,-0.53454 0.1782,0 0.4086,0.12599 0.5346,0 0.126,-0.12599 -0.126,-0.40855 0,-0.53454 0.126,-0.12599 0.4085,0.12599 0.5345,0 0.126,-0.12599 -0.126,-0.40855 0,-0.53454 0.126,-0.12599 0.4086,0.12599 0.5345,0 0.252,-0.25198 -0.2519,-0.81709 0,-1.06908 0.126,-0.12599 0.4086,0.12599 0.5346,0 0.126,-0.12599 0,-0.35636 0,-0.53454 0,-0.8909 0,-1.7818 0,-2.67269 0,-0.17818 -0.126,-0.40855 0,-0.53454 0.126,-0.12599 0.4549,0.15937 0.5345,0 0.2391,-0.47811 0,-1.06908 0,-1.60362 0,-1.24726 0,-2.49451 0,-3.74177 0,-0.17818 0,-0.35636 0,-0.53454 0,-0.17818 0.1729,-0.49133 0,-0.53454 -0.6914,-0.17286 -1.5006,0.31874 -2.1381,0 -0.3188,-0.15937 0,-0.71272 0,-1.06908 0,-0.35636 0,-0.71272 0,-1.06908 0,-0.65421 -0.023,-2.1304 0,-2.13815 0.5071,-0.16904 1.0965,0.16903 1.6036,0 0.169,-0.0564 -0.126,-0.40855 0,-0.53454 0.126,-0.126 0.4085,0.12599 0.5345,0 0.126,-0.126 -0.126,-0.40855 0,-0.53454 0.126,-0.12599 0.4086,0.12599 0.5346,0 0.126,-0.12599 -0.126,-0.40855 0,-0.53454 0.126,-0.12599 0.4085,0.12599 0.5345,0 0.252,-0.25199 -0.252,-0.81709 0,-1.06908 0.126,-0.12599 0.4549,0.15937 0.5346,0 0.1593,-0.31874 -0.1977,-0.77257 0,-1.06908 0.221,-0.3315 0.7873,-0.25281 1.069,-0.53454 0.192,-0.19201 -0.1729,-1.79233 0,-2.13815 0.08,-0.15937 0.4086,0.12599 0.5346,0 0.126,-0.12599 0,-0.35636 0,-0.53454 0,-1.06908 0,-2.13816 0,-3.20724 0,-1.24725 0,-2.49451 0,-3.74177 0,-0.17818 -0.1594,-0.45485 0,-0.53454 0.3187,-0.15937 0.7503,0.15937 1.069,0 0.1384,-0.0692 -0.06,-1.42439 0,-1.60361 0.126,-0.37798 0.4086,-0.69111 0.5346,-1.06908 0.1127,-0.33808 -0.1594,-0.75034 0,-1.06908 0.1127,-0.22538 0.4218,-0.30916 0.5345,-0.53454 0.1594,-0.31874 -0.252,-0.81709 0,-1.06908 0.126,-0.12599 0.4549,0.15937 0.5346,0 0.1593,-0.31874 -0.1594,-0.75034 0,-1.06908 0.08,-0.15937 0.7127,0 0.5345,0 -0.3564,0 -1.0691,0.35636 -1.0691,0 0,-0.35636 1.0691,0.35636 1.0691,0 0,-1.10173 -1.8431,-0.23946 -2.1382,-0.53453 -0.7127,-0.71272 0.891,-0.53454 -0.5345,-0.53454 -0.1782,0 -0.3752,0.0797 -0.5345,0 -1.8683,-0.93413 0.9952,-0.0738 -0.5346,-1.60363 -0.1286,-0.12861 -2.0095,0.12864 -2.1381,0 -0.126,-0.12599 0.1593,-0.45484 0,-0.53454 -0.3188,-0.15935 -0.8171,0.25199 -1.0691,0 -0.252,-0.25199 0.1594,-0.75033 0,-1.06907 -0.08,-0.15936 -0.3564,0 -0.5346,0 -0.3563,0 -0.7309,0.11268 -1.069,0 -0.2391,-0.0797 -0.2955,-0.45485 -0.5346,-0.53454 -0.338,-0.11269 -0.7503,0.15936 -1.069,0 -0.4508,-0.22537 -0.7128,-0.71271 -1.0691,-1.06907 -0.1782,-0.17817 -0.2955,-0.45485 -0.5346,-0.53454 -0.338,-0.11269 -0.7127,0 -1.069,0 -0.1782,0 -0.4549,0.15936 -0.5346,0 -0.1594,-0.31875 0.252,-0.81709 0,-1.06908 -1.069,-1.06907 -0.8018,0.53454 -1.6036,0 -0.4193,-0.27956 -0.6497,-0.78954 -1.0691,-1.06907 -0.1482,-0.0988 -0.4085,0.12599 -0.5345,0 -0.126,-0.126 0.1594,-0.45487 0,-0.53454 -0.3187,-0.15939 -0.7127,0 -1.0691,0 -0.1782,0 -0.4085,0.12599 -0.5345,0 -0.126,-0.126 0.126,-0.40857 0,-0.53454 -0.126,-0.12599 -0.7127,0 -0.5346,0 3.0291,0 0.1782,0.35634 1.0691,-0.53454 0.126,-0.12599 0.4086,0.12597 0.5345,0 0.126,-0.12599 -0.08,-0.37518 0,-0.53456 0.1127,-0.22537 0.4219,-0.30914 0.5346,-0.53454 0.08,-0.15936 -0.126,-0.40854 0,-0.53454 0.126,-0.12599 0.3563,0 0.5345,0 1.0691,0 2.1382,0 3.2073,0 0.1781,0 0.3563,0 0.5345,0 0.1782,0 0.4085,0.126 0.5345,0 0.126,-0.12599 -0.126,-0.40854 0,-0.53453 0.126,-0.126 0.3564,0 0.5346,0 0.8909,0 1.7818,0 2.6727,0 0.1782,0 0.4782,-0.16902 0.5345,0 0.169,0.50712 -0.169,1.09651 0,1.60361 0.056,0.16904 0.3655,-0.0563 0.5345,0 0.378,0.12599 0.6912,0.40857 1.0691,0.53456 0.1691,0.0563 0.4086,-0.12599 0.5346,0 0.126,0.12597 -0.126,0.40855 0,0.53454 0.126,0.12597 0.3563,0 0.5345,0 0,0.35634 -0.1594,0.75033 0,1.06908 0.1594,0.31871 0.8171,-0.25199 1.0691,0 0.252,0.25199 -0.252,0.81708 0,1.06907 0.126,0.126 0.3563,0 0.5345,0 0.3564,0 0.7504,-0.15938 1.0691,0 0.1594,0.0797 -0.126,0.40855 0,0.53454 0.126,0.12599 0.3564,0 0.5345,0 0.1782,0 0.3564,0 0.5346,0 0.3789,0 3.069,-0.0691 3.2072,0 0.2254,0.11269 0.3092,0.42185 0.5345,0.53454 0.212,0.10596 1.4944,-0.10928 1.6037,0 0.126,0.12599 -0.126,0.40854 0,0.53454 0.126,0.12599 0.4085,-0.126 0.5345,0 0.126,0.12599 -0.126,0.40854 0,0.53453 0.126,0.126 0.4086,-0.12599 0.5346,0 0.1259,0.126 0,0.35637 0,0.53454 0,0.17817 0,0.35637 0,0.53454 0,0.17817 0,0.35637 0,0.53454 0,0.17819 0.1593,0.45487 0,0.53453 -0.3188,0.15939 -0.7504,-0.15935 -1.0691,0 -0.1594,0.0797 0.099,0.3863 0,0.53454 -1.283,1.92444 -1.0691,0.20273 -1.0691,2.13817 0,0.17817 -0.1594,0.45485 0,0.53453 0.3187,0.15937 0.7503,-0.15937 1.0691,0 0.1593,0.0797 -0.126,0.40855 0,0.53454 0.2817,0.28173 0.7873,0.25282 1.0691,0.53454 0.1259,0.12599 -0.126,0.40855 0,0.53454 0.2519,0.25199 0.7725,-0.19767 1.069,0 2.48,-0.4574 0.6148,1.14935 1.0691,1.60362 0.1425,0.1425 1.4611,-0.1425 1.6036,0 0.252,0.25198 -0.1127,0.731 0,1.06908 0.4671,1.40119 0.7344,-0.33475 1.6036,0.53454 2.8509,2.85087 -2.2678,-0.26465 0.5346,1.60361 0.3315,0.22101 0.6825,0.43791 1.0691,0.53454 0.3457,0.0864 0.8171,-0.25198 1.069,0 0.252,0.25199 -0.1593,0.75034 0,1.06908 0.08,0.15937 0.4086,-0.12599 0.5346,0 0.126,0.12599 -0.126,0.40855 0,0.53454 0.126,0.12599 0.4085,-0.12599 0.5345,0 0.126,0.12599 0,0.35636 0,0.53454 0,1.06908 0,2.13815 0,3.20723 0,0.17818 0,0.35636 0,0.53454 0,0.17818 0.1594,0.45486 0,0.53454 -0.6375,0.31874 -1.5007,-0.31874 -2.1381,0 -0.1594,0.0797 0.1259,0.40855 0,0.53454 -0.126,0.12599 -0.4086,-0.12599 -0.5346,0 0,1.42544 0.1782,-0.17818 -0.5345,0.53454 -0.126,0.12599 0.126,0.40854 0,0.53454 -0.126,0.12599 -0.4086,-0.126 -0.5346,0 -0.1092,0.10928 0.106,1.39167 0,1.60361 -0.1126,0.22538 -0.4218,0.30916 -0.5345,0.53454 -0.07,0.14056 0,1.85864 0,2.13816 0,0.17818 -0.126,0.40855 0,0.53454 0.4543,0.45427 1.0527,0.73855 1.6036,1.06908 0.3417,0.20498 0.7874,0.25281 1.0691,0.53453 0.126,0.126 -0.126,0.40855 0,0.53454 0.126,0.126 0.4549,-0.15936 0.5345,0 0.1594,0.31874 -0.2519,0.8171 0,1.06908 0.3985,0.39843 1.0997,0.28256 1.6036,0.53454 0.4508,0.22538 0.591,0.90971 1.0691,1.06908 0.3381,0.11269 0.7726,-0.19767 1.0691,0 1.5051,0.0332 0.1361,1.20519 0.5346,1.60362 0.126,0.12599 0.4548,-0.15937 0.5345,0 0.1594,0.31874 -0.252,0.81709 0,1.06907 1.5298,1.52982 0.6695,-1.33372 1.6036,0.53455 0.08,0.15936 0,0.35635 0,0.53453 0,0.71272 0,1.42544 0,2.13816 0,0.17818 0.1594,0.45485 0,0.53454 -0.3187,0.15937 -0.7503,-0.15937 -1.0691,0 -0.1594,0.0797 0.126,0.40855 0,0.53454 -0.2673,0.26727 -1.3363,-0.26727 -1.6036,0 -0.126,0.12599 0.126,0.40855 0,0.53454 -0.126,0.12599 -0.4085,-0.12599 -0.5345,0 -0.024,0.0242 0,2.42066 0,2.67269 0,0.17818 0.1593,0.45486 0,0.53454 -0.3188,0.15937 -0.7504,-0.15937 -1.0691,0 -0.088,0.0441 0,1.4614 0,1.60362 0,0.12964 0.017,1.58642 0,1.60362 -0.126,0.12599 -0.4549,-0.15937 -0.5346,0 -0.239,0.4781 0,1.06907 0,1.60361 0,0.1963 0.022,2.11665 0,2.13816 -0.1259,0.12599 -0.4085,-0.12599 -0.5345,0 -0.126,0.12599 0.126,0.40855 0,0.53454 -0.126,0.12599 -0.4085,-0.12599 -0.5345,0 -0.252,0.25198 0.1594,0.75034 0,1.06908 -0.1127,0.22538 -0.4219,0.30915 -0.5346,0.53453 -0.1593,0.31874 0.252,0.8171 0,1.06908 -0.126,0.12599 -0.4085,-0.12599 -0.5345,0 -0.126,0.12599 0.126,0.40855 0,0.53454 -0.126,0.12599 -0.4086,-0.12599 -0.5345,0 -0.252,0.25199 0.2519,0.8171 0,1.06908 -0.126,0.12599 -0.4549,-0.15937 -0.5346,0 -0.1136,0.22719 0,2.22475 0,2.67269 0,0.17819 0.126,0.40855 0,0.53454 -0.126,0.126 -0.4085,-0.12599 -0.5345,0 -0.126,0.126 0.08,0.37518 0,0.53454 -1.7729,1.77285 0.252,-0.50397 -0.5346,1.06908 -0.1126,0.22538 -0.4218,0.30916 -0.5345,0.53454 -0.1594,0.31874 0.252,0.81709 0,1.06908 -0.2673,0.26727 -1.3364,-0.26727 -1.6036,0 -0.126,0.12599 0.126,0.40854 0,0.53454 -0.126,0.12599 -0.4086,-0.126 -0.5345,0 -0.126,0.12599 0.1259,0.40854 0,0.53454 -0.126,0.12599 -0.4086,-0.126 -0.5346,0 -0.1655,0.16551 0.1655,2.50717 0,2.67269 -0.126,0.12599 -0.4085,-0.12599 -0.5345,0 -0.126,0.12599 0,0.35636 0,0.53454 0,1.24726 0,2.49452 0,3.74178 0,0.17817 0.1593,0.45485 0,0.53453 -0.3188,0.15937 -0.7504,-0.15937 -1.0691,0 -0.3187,0.15937 0.252,0.8171 0,1.06908 -0.126,0.12599 -0.4086,-0.12599 -0.5345,0 -0.252,0.25198 0.2519,0.8171 0,1.06908 -0.126,0.12599 -0.4086,-0.12599 -0.5346,0 -0.126,0.12599 0,0.35636 0,0.53454 0,0.35636 0.1594,0.75034 0,1.06908 -0.08,0.15937 -0.4085,-0.12599 -0.5345,0 -0.126,0.12599 0,0.35636 0,0.53454 0,0.17818 0,0.35635 0,0.53454 0,1.78179 0,3.56359 0,5.34539 0,0.35636 0,0.71271 0,1.06907 0,0.17818 0.1782,0.53454 0,0.53454 -0.1782,0 0,-0.35636 0,-0.53454 0,-0.17818 0,-0.35636 0,-0.53454 -0.8909,0.17818 -1.7765,0.38518 -2.6727,0.53454 -0.4963,0.0827 -1.0997,0 -1.6036,0 -0.8909,0 -1.7818,0 -2.6727,0 -2.8509,0 -5.7018,0 -8.5526,0 -0.7128,0 -1.4255,0 -2.1382,0 -0.1782,0 -0.4276,0.14255 -0.5345,0 -0.4781,-0.63747 -0.7127,-1.42543 -1.0691,-2.13815 z"
       id="path926"
       inkscape:connector-curvature="0" />
    <g
       id="g934"
       transform="rotate(-67.111029,1524.3253,-195.99403)"
       style="fill:#ffdd55">
      <ellipse
         ry="15.768902"
         rx="4.2763124"
         cy="-205.73398"
         cx="1523.4363"
         id="path928"
         style="opacity:1;fill:#ffdd55;fill-opacity:1;stroke:#ddff55;stroke-width:0.98000002;stroke-miterlimit:4;stroke-dasharray:none;paint-order:stroke fill markers" />
      <ellipse
         ry="2.6726952"
         rx="1.6036172"
         cy="-186.2233"
         cx="1523.4363"
         id="path930"
         style="opacity:1;fill:#ffdd55;fill-opacity:1;stroke:#ddff55;stroke-width:0.98000002;stroke-miterlimit:4;stroke-dasharray:none;paint-order:stroke fill markers" />
    </g>
    <g
       id="g963">
      <rect
         y="-314.56546"
         x="1672.5446"
         height="43.089287"
         width="125.86607"
         id="rect956"
         style="opacity:1;fill:#ffe6d5;fill-opacity:1;stroke:#ddff55;stroke-width:0.98000002;stroke-miterlimit:4;stroke-dasharray:none;paint-order:stroke fill markers" />
      <flowRoot
         transform="matrix(0.81397749,0,0,1.9456955,-3617.1394,1872.3145)"
         style="font-style:normal;font-weight:normal;font-size:18.66666603px;line-height:1.25;font-family:sans-serif;letter-spacing:0px;word-spacing:0px;fill:#d38d5f;fill-opacity:1;stroke:none"
         id="flowRoot948"
         xml:space="preserve"><flowRegion
           style="fill:#d38d5f"
           id="flowRegion950"><rect
             style="fill:#d38d5f"
             y="-1123.1946"
             x="6507.1431"
             height="218.57143"
             width="402.85715"
             id="rect952" /></flowRegion><flowPara
           style="font-style:normal;font-variant:normal;font-weight:normal;font-stretch:normal;font-family:Chilanka;-inkscape-font-specification:Chilanka"
           id="flowPara954">Grinden är låst!</flowPara></flowRoot>    </g>
  </g>
</svg>
